<?xml version="1.0" encoding="UTF-8"?>
<svg width="133.05mm" height="133.05mm" version="1.1" viewBox="0 0 471.42848 471.42847" xmlns="http://www.w3.org/2000/svg">
 <defs>
  <linearGradient id="a" x1="244.91" x2="373.06" y1="513.73" y2="683.94" gradientTransform="matrix(.46068 0 0 .46068 17.535 355.94)" gradientUnits="userSpaceOnUse">
   <stop offset="0"/>
   <stop stop-opacity="0" offset="1"/>
  </linearGradient>
 </defs>
 <g transform="translate(-92.857 -82.362)">
  <g transform="matrix(5 0 0 5 -458.21 -2853.4)">
   <circle cx="157.36" cy="634.29" r="47.143" fill="#ffd740"/>
   <path d="m203.31 645.52c-4.6153-5.5125-27.307-36.311-31.795-41.845l-27.682 8.1573 0.93035 33.075c-1.002-0.54428-2.1286-1.078-3.2688-1.4837-0.57013-0.20284-1.1437-0.37351-1.7068-0.49757-0.56315-0.12405-1.1154-0.2019-1.6439-0.21774-0.52848-0.0159-1.0329 0.0303-1.499 0.15206-0.46611 0.12181-0.89353 0.31936-1.2696 0.60824-0.37604 0.28889-0.70086 0.66901-0.95915 1.1544-0.25828 0.48539-0.80756 1.5229-0.92039 2.2343l30.387 34.163c5.7308-1.1585 11.583-2.1357 20.361-8.0083 0 0 8.0841-5.5496 12.982-13.536 3.3095-4.5224 6.0845-13.956 6.0845-13.956zm-33.892-11.601v4.9262c-0.40697-0.21185-0.82739-0.38429-1.257-0.51647-0.42959-0.13218-0.86812-0.22475-1.3101-0.27802-0.44194-0.0533-0.8876-0.0671-1.3316-0.0423-0.44405 0.0249-0.88675 0.0885-1.3226 0.19075-0.43591 0.10223-0.86556 0.24316-1.2831 0.42199-0.41751 0.17882-0.82312 0.39586-1.212 0.65053-0.38887 0.25466-0.76035 0.54664-1.1103 0.87637-0.34996 0.32973-0.67813 0.69728-0.97894 1.1013v-4.3612l9.8056-2.9692z" fill="url(#a)"/>
   <path d="m171.45 603.6-27.682 6.7184v28.968c-0.95289-0.42879-2.2865-0.66731-3.7635-0.66731-0.90525 0-1.858 0.18979-2.9062 0.61859-0.65511 0.26205-1.2477 0.5809-1.7681 0.94493-0.52037 0.36404-0.96833 0.77401-1.3346 1.2177s-0.64983 0.92125-0.84264 1.4223c-0.19281 0.50102-0.2955 1.0259-0.2955 1.5619 0 0.50026 0.10763 1.0237 0.29225 1.518 0.18462 0.49432 0.4469 0.95831 0.7566 1.3395 0.40497 0.45262 0.94033 0.79871 1.5895 1.031 0.64915 0.23227 1.4122 0.3507 2.2698 0.3507 0.70276 0 1.4469-0.1279 2.1854-0.35719 0.7385-0.2293 1.4707-0.55944 2.1496-0.96442s1.3057-0.88383 1.8298-1.4109 0.94537-1.1027 1.2193-1.6983c0.38116-0.8576 0.71601-2.5253 0.71601-3.7164v-23.203l23.489-5.8596v21.154c-1.1435-0.47644-2.5723-0.71439-4.0492-0.71439-0.90525 0-2.6206 0.52419-3.7164 1.0959-1.0244 0.54792-1.8469 1.2618-2.4127 2.0717-0.28288 0.40498-0.50129 0.83407-0.64944 1.2778-0.14814 0.44369-0.22567 0.90253-0.22567 1.3671 0 0.50026 0.10762 1.0237 0.29224 1.5181 0.18463 0.49431 0.44528 0.95992 0.75498 1.3411 0.40497 0.45262 0.92952 0.79709 1.5668 1.0294 0.63725 0.23227 1.3878 0.35232 2.2454 0.35232 1.0244 0 2.0718-0.22768 3.0783-0.64456 1.0065-0.4169 1.9723-1.0236 2.8299-1.786 0.78615-0.73849 1.3821-1.5837 1.7811-2.5425 0.39902-0.95885 0.60073-2.0317 0.60073-3.2228v-30.111z" fill="#fff"/>
  </g>
 </g>
</svg>
